<svg width="184" height="46" viewBox="0 0 184 46" fill="none" xmlns="http://www.w3.org/2000/svg">
<path fill-rule="evenodd" clip-rule="evenodd" d="M85.1072 0.998391L92.7675 33.5863H90.136L86.8015 19.1414H80.8355L78.0297 33.5863H76.9783L82.71 0.998391H85.1072ZM80.9557 18.0856H86.5702L83.3529 4.22883L80.9557 18.0856ZM110.02 19.0237C109.824 19.0629 109.62 19.081 109.407 19.081C109.194 19.081 108.989 19.0629 108.794 19.0237H108.091V33.5863H105.694V0.880756C110.41 0.684697 113.793 1.49608 115.841 3.31791C117.887 5.13673 118.912 7.20289 118.912 9.51337V10.0412C118.834 11.8027 118.23 13.4768 117.097 15.0633C115.968 16.6499 114.487 17.775 112.654 18.4386C115.072 19.1836 116.698 20.191 117.536 21.4639C118.374 22.7368 118.695 24.7426 118.5 27.4814C118.5 28.5401 118.617 29.5656 118.852 30.564C119.086 31.5624 119.416 32.4522 119.846 33.2365H117.214C116.902 32.7267 116.659 32.1295 116.484 31.4448C116.31 30.7601 116.22 30.0271 116.22 29.2429C116.337 25.9551 115.938 23.527 115.021 21.9616C114.105 20.3961 112.438 19.4158 110.023 19.0267L110.02 19.0237ZM108.091 17.968C110.744 17.968 112.768 17.1265 114.174 15.4434C115.577 13.7603 116.28 11.8992 116.28 9.86627C116.28 7.83329 115.616 6.11703 114.291 4.49427C112.967 2.86849 110.9 2.0179 108.094 1.93947V17.971L108.091 17.968ZM136.218 0.880756V33.5863H133.821V0.880756H136.218ZM151.13 0.880756V28.1842C151.169 29.5144 151.608 30.5127 152.446 31.1793C153.284 31.8459 154.209 32.1958 155.224 32.235H155.399C156.45 32.235 157.405 31.8912 158.264 31.2065C159.124 30.5218 159.55 29.5144 159.55 28.1812V0.880756H161.83V28.1842C161.947 30.0633 161.392 31.4719 160.163 32.413C158.934 33.3511 157.561 33.8427 156.041 33.8819C154.56 33.8819 153.197 33.4114 151.947 32.4733C150.7 31.5353 150.075 30.1055 150.075 28.1872V0.880756H151.127H151.13ZM181.365 0.645485C179.455 2.56384 178.1 4.24693 177.301 5.69475C176.502 7.14256 176.102 8.43354 176.102 9.57068C176.102 10.8224 176.454 11.9475 177.154 12.9459C177.857 13.9443 178.674 14.9125 179.611 15.8536C179.689 15.932 179.767 16.0104 179.845 16.0889C179.924 16.1673 180.002 16.2457 180.08 16.3241C181.056 17.3406 181.951 18.3993 182.771 19.4943C183.591 20.5892 184 21.8832 184 23.3702C184 24.7396 183.513 26.3352 182.537 28.154C181.564 29.9758 179.809 32.1174 177.274 34.5847L176.688 33.9392C178.599 31.9425 179.933 30.19 180.693 28.6849C181.453 27.1767 181.834 25.8556 181.834 24.7215C181.834 23.3913 181.465 22.2059 180.723 21.1683C179.981 20.1307 179.164 19.1413 178.265 18.2033C178.226 18.1641 178.187 18.1249 178.148 18.0856C178.109 18.0464 178.07 18.0072 178.031 17.968C177.097 16.9907 176.238 15.9622 175.457 14.8854C174.675 13.8086 174.288 12.5477 174.288 11.0969C174.249 9.72752 174.697 8.15 175.634 6.3704C176.568 4.59079 178.247 2.46431 180.663 0L181.365 0.645485Z" fill="#223A7F"/>
<path fill-rule="evenodd" clip-rule="evenodd" d="M56.0103 45.3167H48.35L33.7323 16.3996L18.9165 45.3167H11.2952L33.7113 0.545959L56.0103 45.3167Z" fill="#223A7F"/>
<path fill-rule="evenodd" clip-rule="evenodd" d="M81.5656 43.6668C81.5656 44.1765 81.3553 44.5928 80.9347 44.9216C80.5142 45.2473 79.9434 45.4102 79.2164 45.4102C78.8049 45.4102 78.4294 45.3619 78.0839 45.2624C77.7414 45.1629 77.4531 45.0573 77.2217 44.9397V43.887H77.2698C77.5642 44.1102 77.8916 44.2881 78.2551 44.4178C78.6156 44.5475 78.9641 44.6169 79.2975 44.6169C79.7091 44.6169 80.0305 44.5506 80.2618 44.4178C80.4931 44.2851 80.6103 44.074 80.6103 43.7874C80.6103 43.5673 80.5472 43.4014 80.421 43.2867C80.2949 43.1721 80.0515 43.0756 79.6941 42.9972C79.5619 42.967 79.3876 42.9338 79.1744 42.8916C78.9611 42.8524 78.7658 42.8072 78.5886 42.7619C78.1019 42.6322 77.7535 42.4422 77.5522 42.1918C77.3479 41.9385 77.2458 41.6308 77.2458 41.2628C77.2458 41.0336 77.2938 40.8164 77.387 40.6143C77.4831 40.4122 77.6273 40.2312 77.8195 40.0714C78.0058 39.9145 78.2401 39.7909 78.5285 39.7004C78.8139 39.6069 79.1353 39.5616 79.4898 39.5616C79.8232 39.5616 80.1567 39.6039 80.4991 39.6853C80.8386 39.7667 81.121 39.8663 81.3463 39.9809V40.9853H81.2982C81.0579 40.8104 80.7695 40.6596 80.427 40.5389C80.0846 40.4183 79.7511 40.3579 79.4237 40.3579C79.0963 40.3579 78.7928 40.4243 78.5585 40.557C78.3212 40.6897 78.2041 40.8858 78.2041 41.1422C78.2041 41.3714 78.2762 41.5433 78.4173 41.661C78.5555 41.7756 78.7838 41.8721 79.0932 41.9445C79.2675 41.9837 79.4597 42.0229 79.673 42.0651C79.8863 42.1044 80.0636 42.1406 80.2077 42.1737C80.6433 42.2733 80.9768 42.4452 81.2141 42.6895C81.4514 42.9369 81.5686 43.2626 81.5686 43.6698L81.5656 43.6668ZM92.8637 38.7593H91.8093V37.785H92.8637V38.7593ZM92.8037 45.2745H91.8694V39.6943H92.8037V45.2745ZM107.58 43.6638C107.58 44.1735 107.37 44.5898 106.95 44.9186C106.529 45.2443 105.958 45.4072 105.231 45.4072C104.82 45.4072 104.444 45.3589 104.099 45.2594C103.756 45.1599 103.468 45.0543 103.237 44.9366V43.884H103.285C103.579 44.1072 103.907 44.2851 104.27 44.4148C104.631 44.5445 104.979 44.6139 105.312 44.6139C105.724 44.6139 106.045 44.5475 106.277 44.4148C106.508 44.2821 106.625 44.071 106.625 43.7844C106.625 43.5642 106.562 43.3983 106.436 43.2837C106.31 43.1691 106.066 43.0726 105.709 42.9942C105.577 42.964 105.403 42.9308 105.189 42.8886C104.976 42.8494 104.781 42.8041 104.607 42.7589C104.12 42.6292 103.771 42.4392 103.57 42.1888C103.366 41.9354 103.264 41.6278 103.264 41.2598C103.264 41.0306 103.312 40.8134 103.405 40.6113C103.501 40.4092 103.645 40.2282 103.837 40.0684C104.024 39.9115 104.258 39.7878 104.546 39.6974C104.835 39.6039 105.153 39.5586 105.511 39.5586C105.844 39.5586 106.178 39.6008 106.52 39.6823C106.86 39.7637 107.142 39.8633 107.367 39.9779V40.9823H107.319C107.079 40.8074 106.79 40.6565 106.448 40.5359C106.106 40.4152 105.772 40.3549 105.445 40.3549C105.117 40.3549 104.814 40.4213 104.579 40.554C104.342 40.6867 104.225 40.8828 104.225 41.1391C104.225 41.3684 104.297 41.5403 104.438 41.6579C104.576 41.7726 104.802 41.8691 105.114 41.9415C105.288 41.9807 105.481 42.0199 105.694 42.0621C105.907 42.1013 106.084 42.1375 106.229 42.1707C106.664 42.2703 106.998 42.4422 107.235 42.6865C107.472 42.9338 107.59 43.2596 107.59 43.6668L107.58 43.6638ZM120.759 45.2232C120.585 45.2715 120.393 45.3077 120.185 45.3378C119.978 45.368 119.792 45.3831 119.63 45.3831C119.062 45.3831 118.632 45.2292 118.338 44.9246C118.044 44.6169 117.893 44.1253 117.893 43.4526V40.4846H117.262V39.6943H117.893V38.0927H118.831V39.6943H120.759V40.4846H118.831V43.0273C118.831 43.3199 118.837 43.5492 118.852 43.7151C118.867 43.8779 118.912 44.0348 118.99 44.1765C119.062 44.3123 119.164 44.4088 119.29 44.4691C119.416 44.5294 119.612 44.5626 119.873 44.5626C120.026 44.5626 120.182 44.5415 120.351 44.4963C120.516 44.451 120.636 44.4118 120.708 44.3847H120.756V45.2262L120.759 45.2232ZM135.494 42.5809H131.399C131.399 42.9248 131.451 43.2234 131.553 43.4768C131.655 43.7301 131.796 43.9413 131.976 44.1042C132.147 44.264 132.352 44.3847 132.589 44.4631C132.826 44.5445 133.088 44.5837 133.373 44.5837C133.752 44.5837 134.13 44.5083 134.515 44.3575C134.896 44.2067 135.17 44.0559 135.335 43.9081H135.383V44.9336C135.067 45.0664 134.746 45.178 134.419 45.2684C134.088 45.3589 133.746 45.4042 133.382 45.4042C132.46 45.4042 131.742 45.1538 131.222 44.6531C130.706 44.1524 130.447 43.4406 130.447 42.5176C130.447 41.5946 130.697 40.8797 131.192 40.3459C131.688 39.809 132.34 39.5405 133.148 39.5405C133.899 39.5405 134.476 39.7607 134.881 40.2011C135.287 40.6384 135.491 41.2658 135.491 42.0742V42.5839L135.494 42.5809ZM134.584 41.86C134.581 41.3684 134.458 40.9853 134.214 40.7169C133.971 40.4484 133.598 40.3127 133.103 40.3127C132.607 40.3127 132.205 40.4605 131.907 40.7561C131.61 41.0517 131.442 41.4197 131.402 41.86H134.584ZM153.978 45.2715H153.044V42.0953C153.044 41.854 153.035 41.6218 153.01 41.3985C152.989 41.1784 152.941 40.9974 152.872 40.8647C152.797 40.7229 152.686 40.6113 152.545 40.5389C152.404 40.4665 152.196 40.4303 151.929 40.4303C151.662 40.4303 151.403 40.4967 151.142 40.6294C150.881 40.7621 150.619 40.928 150.358 41.1301C150.367 41.2055 150.376 41.296 150.382 41.3985C150.388 41.4981 150.391 41.6006 150.391 41.7002V45.2745H149.454V42.0983C149.454 41.851 149.445 41.6187 149.421 41.3955C149.4 41.1723 149.352 40.9974 149.282 40.8647C149.207 40.7199 149.096 40.6143 148.955 40.5419C148.811 40.4695 148.607 40.4333 148.339 40.4333C148.072 40.4333 147.829 40.4967 147.57 40.6234C147.315 40.75 147.056 40.9099 146.801 41.109V45.2745H145.864V39.6943H146.801V40.3127C147.093 40.0714 147.384 39.8783 147.675 39.7426C147.967 39.6069 148.276 39.5375 148.604 39.5375C148.982 39.5375 149.303 39.6189 149.568 39.7788C149.832 39.9387 150.027 40.1589 150.157 40.4424C150.535 40.1227 150.881 39.8934 151.193 39.7517C151.502 39.6099 151.836 39.5375 152.19 39.5375C152.803 39.5375 153.251 39.7245 153.542 40.0955C153.834 40.4665 153.978 40.9853 153.978 41.6519V45.2745V45.2715ZM169.055 45.2715H168.124V44.6772C168.04 44.7346 167.929 44.813 167.787 44.9155C167.646 45.0151 167.511 45.0965 167.379 45.1568C167.223 45.2322 167.042 45.2956 166.841 45.3499C166.64 45.4012 166.402 45.4253 166.129 45.4253C165.63 45.4253 165.204 45.2594 164.858 44.9246C164.51 44.5928 164.336 44.1675 164.336 43.6517C164.336 43.2294 164.426 42.8856 164.606 42.6262C164.786 42.3668 165.045 42.1587 165.378 42.0078C165.718 41.857 166.123 41.7575 166.598 41.7032C167.072 41.6489 167.58 41.6097 168.124 41.5825V41.4378C168.124 41.2236 168.088 41.0487 168.013 40.9069C167.938 40.7681 167.832 40.6565 167.691 40.5751C167.559 40.4997 167.4 40.4484 167.214 40.4213C167.027 40.3941 166.832 40.3821 166.631 40.3821C166.387 40.3821 166.114 40.4152 165.811 40.4786C165.507 40.5449 165.198 40.6384 164.873 40.7621H164.825V39.8059C165.006 39.7577 165.273 39.7004 165.615 39.6431C165.961 39.5827 166.3 39.5526 166.634 39.5526C167.027 39.5526 167.367 39.5858 167.655 39.6491C167.947 39.7155 168.196 39.824 168.409 39.9809C168.619 40.1347 168.779 40.3308 168.887 40.5751C168.998 40.8164 169.052 41.118 169.052 41.48V45.2684L169.055 45.2715ZM168.124 43.896V42.3426C167.838 42.3607 167.502 42.3849 167.117 42.4181C166.73 42.4512 166.423 42.4995 166.198 42.5628C165.931 42.6382 165.712 42.7589 165.546 42.9188C165.381 43.0816 165.297 43.3048 165.297 43.5884C165.297 43.9081 165.393 44.1464 165.585 44.3093C165.778 44.4721 166.072 44.5506 166.466 44.5506C166.796 44.5506 167.096 44.4872 167.367 44.3575C167.64 44.2308 167.889 44.077 168.124 43.896ZM183.781 43.6608C183.781 44.1705 183.57 44.5868 183.15 44.9155C182.729 45.2413 182.159 45.4042 181.432 45.4042C181.02 45.4042 180.645 45.3559 180.299 45.2564C179.957 45.1568 179.668 45.0513 179.437 44.9336V43.8809H179.485C179.779 44.1042 180.107 44.2821 180.47 44.4118C180.831 44.5415 181.179 44.6109 181.513 44.6109C181.924 44.6109 182.246 44.5445 182.477 44.4118C182.708 44.2791 182.825 44.068 182.825 43.7814C182.825 43.5612 182.762 43.3953 182.636 43.2807C182.51 43.1661 182.267 43.0696 181.909 42.9911C181.777 42.961 181.603 42.9278 181.39 42.8856C181.176 42.8464 180.981 42.8011 180.807 42.7559C180.32 42.6262 179.972 42.4361 179.77 42.1858C179.566 41.9324 179.464 41.6248 179.464 41.2568C179.464 41.0275 179.512 40.8104 179.605 40.6083C179.701 40.4062 179.845 40.2252 180.038 40.0653C180.224 39.9085 180.458 39.7848 180.747 39.6943C181.035 39.6008 181.354 39.5556 181.711 39.5556C182.044 39.5556 182.378 39.5978 182.72 39.6793C183.06 39.7607 183.342 39.8602 183.567 39.9749V40.9793H183.519C183.279 40.8043 182.991 40.6535 182.648 40.5329C182.306 40.4122 181.972 40.3519 181.645 40.3519C181.317 40.3519 181.014 40.4183 180.78 40.551C180.542 40.6837 180.425 40.8797 180.425 41.1361C180.425 41.3654 180.497 41.5373 180.639 41.6549C180.777 41.7696 181.005 41.8661 181.314 41.9385C181.489 41.9777 181.681 42.0169 181.894 42.0591C182.108 42.0983 182.285 42.1345 182.429 42.1677C182.865 42.2672 183.198 42.4392 183.435 42.6835C183.673 42.9308 183.79 43.2566 183.79 43.6638L183.781 43.6608Z" fill="#223A7F"/>
<path fill-rule="evenodd" clip-rule="evenodd" d="M66.0196 19.5847L69.5824 23.4637L69.5253 23.5089L69.5193 23.6085L65.6441 19.6209C64.7729 19.1413 65.1755 19.6481 64.9352 19.6571L66.8878 21.7927L68.9636 23.9825L69.0837 24.1092L69.1048 24.1152L69.0777 24.2087L69.0657 24.3263L69.0447 24.5616L69.0146 24.9748L68.9936 25.0502L68.9816 25.0864L68.9756 25.1045L68.9846 25.1468L68.9726 25.3428L68.9606 25.6987L68.9215 25.9883L68.9065 26.0456V26.124V26.2839L68.8795 26.5373L68.8674 26.5735L68.8614 26.5916L68.8704 26.6338L68.8795 26.7544L68.8524 27.0078L68.8404 27.1255L68.8494 27.2491L68.8344 27.3064L68.8134 27.3004L68.7503 27.3668L68.7232 27.3818L68.7473 27.1466L68.7533 26.8087L68.7593 26.6308L68.7803 26.4769L68.8524 25.7561L68.8704 25.382L68.9185 25.0533L68.9365 24.7577L68.9636 24.5043L68.9906 24.1725L68.9696 24.1665L68.9546 24.1423L66.4822 21.4639L64.821 19.6662C62.4598 18.6648 61.2372 18.3631 62.562 19.63L62.8534 19.9376L67.2363 24.6883L65.4308 22.8785L63.6314 21.1291L62.0122 19.5847C61.06 19.0056 60.0326 18.2938 59.7142 19.3133L61.4835 21.298L61.3784 21.2739L61.3063 21.298L61.2702 21.3493V21.4277L61.3063 21.5363L61.3934 21.6961L61.5977 22.0008L61.9161 22.3718L62.8384 23.3611L62.8173 23.3551L62.5169 23.4667L61.4955 22.2753L59.8584 19.7929C59.1554 18.6044 56.1904 17.8655 57.9057 19.9799L61.4054 23.8317L60.5853 24.0428L59.1404 22.5347L56.7131 20.0854L54.8146 18.2395C54.2168 19.087 55.3493 19.0418 56.3917 20.3509L58.7499 22.7247L60.1317 24.1393L58.6778 24.3867L57.2328 24.5948L55.7639 24.7396L55.5656 24.7335L55.3823 24.7516L55.0158 24.7878L54.2859 24.8421L53.9614 24.8874L53.6881 24.9839L53.61 25.0261L53.619 25.0683L53.6821 25.0834L53.8293 25.1166L55.3253 25.0382L56.0823 24.9718L56.8603 24.9085L58.3894 24.7185L59.1404 24.5918L59.5189 24.5194L59.7082 24.4832L59.8013 24.4651L59.8493 24.456L59.9124 24.4711L60.36 24.3927L60.8467 24.8813L59.8944 25.0834L59.4017 25.1709L58.9241 25.2825L57.9959 25.4092L57.0826 25.56L56.1544 25.6867L55.6918 25.741L55.4604 25.7681L55.3463 25.7832L55.2472 25.8194L55.115 25.8103L55.0008 25.8224L54.7695 25.8496L54.3069 25.9039L53.3817 26.0124L51.5432 26.1904L49.6627 26.2809L47.7821 26.3714L45.8926 26.4196L44.9253 26.4377L43.976 26.48L42.0294 26.495L40.0558 26.5222L36.0093 26.6157L35.5738 26.6549L35.3845 26.6911L35.2523 26.7605H35.1832L35.1502 26.7967L35.1562 26.857L35.1772 26.863L35.2343 26.8962H35.3034L35.4085 26.9173L39.6022 26.9354L43.7597 27.0048L45.8115 27.0138L47.8693 27.0048L49.918 26.9535L50.9364 26.9053L51.9698 26.8811L52.9791 26.7906L53.4838 26.7454L53.7361 26.7243H54.0035L55.0158 26.6187L56.0462 26.5343L58.089 26.2628L59.1194 26.0999L60.1708 25.94L60.8647 25.7802L61.2012 25.6987L61.3694 25.6565L61.5526 25.6384L62.1745 26.2779L61.2913 26.5554L61.0449 26.6398L59.8584 26.8872L58.6928 27.1405L57.5152 27.3517L56.3316 27.5809L55.118 27.7619L54.5142 27.8433L53.9254 27.9489L52.7238 28.0937L51.5162 28.2566L49.0438 28.4707L47.8092 28.5672L46.5895 28.6879L44.0992 28.8779L41.6089 29.0679L36.5831 29.457L31.5784 30.012L29.7099 30.1448L28.7756 30.2111L27.8564 30.3016L25.9879 30.4343L25.0536 30.5007L24.1344 30.5912L23.1851 30.6334L22.2509 30.6997L20.3824 30.8325L16.6544 31.0587L9.12625 31.4568L1.57712 31.849L1.08746 31.8369L0.835121 31.858L0.660887 31.9183L0.51369 31.9636L0.486653 31.9787L0.495665 32.0209L0.516694 32.0269L0.57377 32.0601L0.636855 32.0752L0.757016 32.1234L0.723972 32.235L0.717964 32.2531L0.77504 32.2863L4.50004 32.3798L5.41327 32.3889L6.34151 32.422L8.198 32.4854L11.914 32.5367L15.66 32.5548L17.5435 32.5246L19.4811 32.4673L21.4278 32.3738L23.4164 32.2893L25.4862 32.1626L27.538 32.0118L31.6535 31.674L29.5687 32.0148L27.577 32.419L25.6334 32.8142L23.7949 33.2334L22.4341 33.3028L21.0913 33.3963L18.4027 33.5803L13.0405 33.894L10.3639 34.0418L7.71135 34.256L5.07381 34.4912L2.48433 34.7989L2.76972 34.6631L2.3131 34.6993L1.94962 34.7959L1.78139 34.8381L1.65522 34.8894L1.57712 34.9316V35.01L1.5651 35.0462L1.61617 35.0975L1.72131 35.1216L1.8625 35.1729H2.01871L2.21397 35.194L2.41825 35.182L2.65857 35.197L7.54012 35.1548L12.4547 35.0794L17.3933 34.9105L22.371 34.6903L27.3337 34.3676L29.803 34.1715L32.2933 33.9815L37.247 33.5351L37.8508 33.4536L38.4696 33.3963L39.7103 33.2817L42.1946 33.0313L45.5411 32.7357L48.8906 32.422L50.5549 32.223L52.2461 32.0118L53.9224 31.7766L55.6467 31.5322L56.4758 31.3633L57.3229 31.2186L59.0262 30.8898L59.8674 30.6817L60.7235 30.4977L62.4538 30.0754L63.7275 29.6863L65.0223 29.2248L66.305 28.6396L67.6118 27.9791L68.5911 27.3637L68.7323 27.2552V27.415L68.6572 27.4391L67.4405 28.2596L66.6084 28.6698L65.7973 29.083L64.9652 29.4118L64.1601 29.7255L63.34 30.0181L62.547 30.2956L60.2609 30.7902L57.9868 31.2487L55.6918 31.6227L55.115 31.6891L54.5532 31.7796L53.4297 31.9606L51.1406 32.235L48.8726 32.5156L44.3545 33.0012L42.0865 33.2003L39.8485 33.4476L35.4115 33.9724L31.5033 34.5184L27.7272 35.1518L25.8557 35.4444L23.9812 35.755L22.0676 36.0386L20.1541 36.3191L15.1523 36.4729L10.1476 36.7082L5.13389 36.9797L0.129173 37.2934L0 37.2843V37.4231L0.90121 37.411L2.02472 37.3869L3.15423 37.3446L4.31079 37.2903L8.96403 36.9555L11.7247 36.8288L14.4975 36.7444L15.8583 36.675L17.2341 36.6298L20.0008 36.482L22.332 36.295L23.4825 36.1773L24.6481 36.0838L26.9522 35.8305L29.2413 35.556L38.3194 34.3555L40.5725 34.0508L42.8796 33.7975L45.1957 33.5863L47.5628 33.4295L50.0772 33.146L52.5556 32.9137L53.7842 32.7538L55.0279 32.6181L55.6377 32.5186L55.9411 32.4673L56.2625 32.4401L57.5182 32.2682L58.7469 32.0299L60.0236 31.7826L60.6484 31.6257L61.2883 31.493L62.586 31.1703L63.8627 30.7631L65.1935 30.3287L66.5033 29.8099L67.8701 29.2429L68.4379 28.893L68.9425 28.531L69.5494 28.1299L69.6034 28.1027L69.6154 27.8252L69.6485 27.5538L69.6725 27.2401L69.7116 26.9505L69.8528 25.1287L69.8858 24.6973L69.9249 24.3263L69.9519 23.9945L69.9789 23.7412L69.997 23.4456L69.9819 23.4215L66.7075 19.7989L66.4732 19.5455C66.326 19.5636 66.1788 19.5787 66.0286 19.5908L66.0196 19.5847ZM66.6595 19.5184C66.8067 19.5003 66.9449 19.4731 67.0861 19.452L67.2182 19.6119L68.6061 21.2467L70.2493 23.159L70.3004 23.2103L70.2433 23.7955L70.1802 24.4802L70.0901 25.4967L70.027 26.5011L70 26.5946L69.9879 26.7122L69.9669 26.9475L69.9369 27.3607L69.8828 27.7076L69.8768 28.0454L69.8528 28.3591L69.8257 28.3742L69.7927 28.4074L69.6305 28.5099L69.5734 28.5552L69.5343 28.7663L69.5464 28.5703L69.1138 28.8297L68.4559 29.258L68.1134 29.4389L67.798 29.6079L67.1311 29.9155L66.4882 30.2081L65.2266 30.7178L63.9378 31.1612L62.7032 31.5775L62.3877 31.665L62.2345 31.6499H62.1654L62.1594 31.5926L62.2375 31.5503L62.3427 31.493L62.5109 31.4508L63.8507 30.9772L64.0099 30.8928L64.043 30.8596L64.091 30.8506L64.1842 30.8325L64.5326 30.7118L65.2266 30.4705L65.8904 30.184L66.5994 29.8884L66.7616 29.7858L66.9419 29.7074L67.2993 29.5505L68.0203 29.2157L69.6365 28.1691L69.6575 28.1751L69.6635 28.157L69.6875 27.605L69.7116 27.2913L69.7566 26.9807L69.9369 25.1045L69.9549 24.6491L69.994 24.2781L70.021 23.9463L70.054 23.6748L70.0721 23.3792L70.051 23.3732L69.9879 23.2797L67.819 20.8697L66.6565 19.5214L66.6595 19.5184ZM63.2048 25.9189L62.559 26.1512L61.9792 25.5208L62.7032 25.3277L63.0516 25.2071L63.2319 25.1287L63.4271 25.0744L63.7966 24.9598L62.7602 23.7442L63.0667 23.6145C63.2319 23.5843 65.2326 25.9551 64.2532 25.4816L63.9228 25.6264L63.2139 25.922L63.2048 25.9189ZM62.0333 24.5526L61.7689 24.6129L61.5226 24.6973L61.2763 24.7818L60.8166 24.2781L61.2072 24.1665L61.4024 24.1122L61.6127 24.079L62.0363 24.5556L62.0333 24.5526ZM46.6136 30.751L49.6056 30.5972L52.6186 30.368L49.6717 30.6726L46.7397 31.0014L43.7988 31.2879L40.8789 31.5805L34.982 32.1295L29.1001 32.781L33.4018 32.1084L37.8088 31.5383L40.0317 31.2668L42.2307 31.0708L44.4296 30.8747L46.6076 30.754L46.6136 30.751Z" fill="#F6BD49"/>
<path fill-rule="evenodd" clip-rule="evenodd" d="M52.2882 17.5095V17.5156L52.3633 17.6181L52.4324 17.7267L52.4594 17.784L52.4894 17.8473L52.5375 17.974L52.5285 17.9469V17.9318L52.5255 17.9228H52.5315H52.5345L52.5435 17.9318L52.5555 17.9469L52.5766 17.977V18.0525L52.4564 17.8594L52.4234 17.8112L52.3963 17.7629L52.3723 17.7116L52.3573 17.6634V17.6573L52.3513 17.6543L52.3452 17.6483H52.3422L52.3332 17.6392L52.2882 17.597L52.2762 17.5668V17.5518L52.2912 17.5246L52.2551 17.4824L52.2221 17.4462L52.2371 17.4914L52.2641 17.5518L52.2912 17.6151L52.3182 17.6754L52.3242 17.6995V17.7056L52.3332 17.7146L52.3362 17.7237V17.7297L52.4204 17.8594L52.5015 17.9982L52.5706 18.1369L52.6396 18.2787L52.6967 18.4174L52.7478 18.5622L52.7959 18.704L52.8379 18.8488L52.8499 18.8638L52.865 18.8819L52.871 18.903L52.88 18.9332V19.0297L52.928 19.256H52.931L52.937 19.268L52.9431 19.2741L52.9491 19.265L52.9551 19.256L52.9491 19.2982V19.3495L52.925 19.2529L52.916 19.2258L52.9431 19.4188L52.9671 19.6149V19.6541L52.9791 19.6933V19.7265L52.9881 19.7627L52.9941 19.8321V19.8441L52.9911 19.8592V19.8713L52.9881 19.8864L52.9821 19.9135L52.9761 19.9407V20.01L52.9821 19.998L52.9761 20.0251L52.9671 20.1699L52.9611 20.2423V20.2483L52.9581 20.2574V20.3177L52.9461 20.3871L52.937 20.4595L52.913 20.6042L52.904 20.6374L52.898 20.6736L52.883 20.746L52.8469 20.8908L52.8259 20.9451L52.8109 21.0054L52.7718 21.12L52.7478 21.1713L52.7268 21.2286L52.6817 21.3342L52.6276 21.4337L52.5675 21.5332L52.5045 21.6237L52.4384 21.7142L52.3993 21.7534L52.3783 21.7715H52.3723L52.3693 21.7806L52.3633 21.7927L52.2852 21.8711L52.2732 21.8771H52.2671L52.2641 21.8862L52.2431 21.9043L52.2041 21.9435L52.123 22.0159L52.0358 22.0822L51.9457 22.1486L51.9187 22.1606L51.9067 22.1667H51.9007L51.8977 22.1757L51.8526 22.2089L51.7565 22.2692L51.6513 22.3205L51.5492 22.3718L51.444 22.417L51.3389 22.4623L51.2278 22.5015L51.1196 22.5407L51.0055 22.5739L50.8943 22.607L50.66 22.6583L50.5428 22.6764L50.4828 22.6855L50.4287 22.6975L50.1944 22.7277L49.9601 22.7518L49.7828 22.7458L49.6146 22.7337L49.4494 22.7096L49.2871 22.6764L49.1279 22.6312L48.9747 22.5769L48.8245 22.5105L48.6833 22.4381L48.6112 22.3959L48.5452 22.3537L48.419 22.2632L48.2988 22.1576L48.1907 22.046L48.1096 21.9555L48.0375 21.8681L47.9684 21.7776L47.9083 21.6871L47.8482 21.5875L47.7971 21.488L47.7491 21.3855L47.71 21.2829L47.6349 21.0657L47.5869 20.8486L47.5628 20.737L47.5508 20.6284L47.5418 20.5168V20.182L47.5748 19.9618L47.6229 19.7416L47.692 19.5274L47.7311 19.4188L47.7791 19.3163L47.8272 19.2137L47.8903 19.1142L47.9534 19.0147L48.0224 18.9242L48.0945 18.8337L48.1757 18.7492L48.2538 18.6497L48.3499 18.5471L48.398 18.4928L48.452 18.4416L48.5722 18.333L48.8245 18.1098L48.9567 18.0042L49.0949 17.9047L49.2241 17.8051L49.3502 17.7237L49.4103 17.6845L49.4734 17.6513L49.5906 17.597L49.6356 17.5608L49.6777 17.5276L49.7498 17.4733L49.8008 17.419L49.8219 17.3919L49.8369 17.3708L49.8519 17.3255L49.8609 17.2863V17.2501L49.8519 17.223L49.8309 17.1958L49.8099 17.1747L49.7828 17.1536L49.7558 17.1446L49.7257 17.1325L49.7047 17.1265H49.6747L49.5876 17.1204H49.5034L49.4223 17.1325L49.3472 17.1536L49.191 17.2019L49.1099 17.2381L49.0318 17.2803L48.9447 17.3225L48.8576 17.3798L48.7614 17.4341L48.6623 17.5035L48.5752 17.5548L48.4791 17.6181L48.3769 17.6845L48.2748 17.7569L48.2988 17.7418L48.3138 17.7357L48.3259 17.7297H48.3349V17.7388L48.3289 17.7448V17.7569L48.3048 17.787L48.2718 17.8293L48.2267 17.8715L48.1787 17.9258L48.1216 17.9861L48.0585 18.0555L47.9894 18.1218L47.9203 18.1942L47.7761 18.342L47.6289 18.4868L47.5598 18.5562L47.4967 18.6286L47.4307 18.6889L47.3706 18.7553L47.3105 18.8246L47.2594 18.9L47.2084 18.9754L47.1663 19.0569L47.1242 19.1413L47.0882 19.2318L47.0221 19.4188L46.9921 19.5123L46.968 19.6149L46.944 19.7144L46.929 19.82L46.908 20.0342L46.8959 20.2513L46.9019 20.4685L46.923 20.6857L46.959 20.9089L46.98 21.0144L47.0071 21.123L47.0341 21.2256L47.0672 21.3312L47.1002 21.4307L47.1393 21.5332L47.1813 21.6328L47.2294 21.7323L47.2714 21.8228L47.3285 21.9193L47.3826 22.0098L47.4517 22.1094L47.5208 22.1998L47.5959 22.2903L47.677 22.3838L47.7641 22.4743L47.8392 22.5528L47.9203 22.6282L48.0014 22.6975L48.0885 22.7669L48.1757 22.8303L48.2658 22.8906L48.3619 22.9449L48.461 22.9961L48.6563 23.0806L48.7554 23.1198L48.8606 23.156L48.9627 23.1862L49.0679 23.2133L49.2811 23.2586L49.3863 23.2706L49.4914 23.2797L49.7017 23.2917H49.909L50.1193 23.2767L50.2695 23.2555L50.3446 23.2435L50.4227 23.2344L50.5729 23.2043L50.5879 23.1982H50.6089L50.648 23.1892L50.7261 23.1771L50.8703 23.1349L51.0205 23.0927L51.1647 23.0444L51.3119 22.9931L51.5942 22.8755L51.7384 22.8122L51.8826 22.7458L52.0268 22.6674L52.171 22.5829L52.3152 22.4834L52.4594 22.3748L52.5255 22.3054L52.5916 22.2391L52.6517 22.1697L52.7117 22.1033L52.7598 22.0309L52.7688 22.0098L52.7808 21.9947L52.8079 21.9616L52.892 21.8168L52.9581 21.666L53.0212 21.5182L53.0692 21.3734L53.1113 21.2316L53.1744 21.0205L53.2374 20.8124L53.2615 20.7068L53.2795 20.6103L53.2945 20.5137L53.3065 20.4263L53.3156 20.2905V20.1639V20.0402V19.9226L53.3005 19.8019L53.2855 19.6873L53.2645 19.5757L53.2435 19.4701V19.5063L53.2525 19.5455L53.2645 19.6239L53.2705 19.6993V19.7355L53.2795 19.7748L53.2885 19.9165L53.2975 20.0704V20.1458L53.2945 20.2272V20.3117L53.2915 20.4021L53.2855 20.4353V20.4474L53.2825 20.4595L53.2765 20.4715H53.2735L53.2675 20.4564L53.2615 20.4414L53.2555 20.4142V20.384L53.2435 20.3026L53.2374 20.2181L53.2254 20.1337L53.2194 20.0643V20.0342V20.004L53.2254 19.9708L53.2374 19.9407L53.2435 19.9045L53.2495 19.8743V19.8441L53.2525 19.817L53.2435 19.7054L53.2224 19.5998L53.1924 19.4882L53.1864 19.4731V19.4611L53.1774 19.4339L53.1654 19.3826L53.1593 19.3585V19.3253L53.1744 19.3193L53.1864 19.3012L53.1924 19.2801L53.1654 19.2017L53.1413 19.1323L53.1113 19.0629L53.0812 19.0086L53.0272 18.894L52.9971 18.7914L52.9671 18.6436L52.9521 18.5713L52.9401 18.5049L52.91 18.4204L52.904 18.4084V18.4023L52.901 18.3993L52.895 18.3782L52.883 18.339L52.8199 18.2364L52.7598 18.1429L52.6997 18.0494L52.6667 18.0012L52.6366 17.9559L52.5736 17.8654L52.5015 17.7659L52.4294 17.6784L52.3543 17.591L52.2822 17.5095H52.2882ZM52.8439 20.9783L52.8529 20.8908L52.8619 20.8516L52.877 20.8184L52.9431 20.6827L52.934 20.755L52.913 20.8335L52.892 20.8697L52.877 20.9089L52.8559 20.9421L52.8499 20.9481H52.8469V20.9571L52.8409 20.9783H52.8439ZM49.9901 18.9513L50.0382 18.9362L50.0862 18.9302H50.1313H50.1733L50.2124 18.9362L50.2514 18.9634L50.2905 18.9966L50.3325 19.0448L50.3386 19.0508L50.3446 19.0659L50.3506 19.0901L50.3596 19.1263L50.3656 19.2017V19.2409L50.3626 19.2861L50.3536 19.3253L50.3416 19.3645L50.3205 19.4007L50.3085 19.4158L50.2995 19.4339L50.2605 19.443L50.2184 19.458L50.1703 19.4822L50.1223 19.5123L50.0171 19.5696L49.921 19.6209L49.8759 19.636L49.8369 19.6601L49.7648 19.7084L49.7017 19.7627L49.6747 19.7929L49.6536 19.829L49.6146 19.8954L49.5906 19.9678L49.5755 20.0402V20.1126V20.182L49.5876 20.2483L49.6116 20.3117L49.6236 20.3388L49.6446 20.369L49.6747 20.4142L49.7167 20.4595L49.7408 20.4806L49.7708 20.5047L49.8008 20.5258L49.8369 20.5499L49.903 20.5861L49.9751 20.6193L50.0472 20.6465L50.1253 20.6736L50.1703 20.6827H50.1944L50.2214 20.6917H50.2635L50.3085 20.6977L50.3476 20.6917L50.3896 20.6857L50.4287 20.6766L50.4707 20.6646L50.5038 20.6434L50.5368 20.6223L50.5669 20.5952L50.5999 20.5711L50.6269 20.5379L50.654 20.5077L50.663 20.4866L50.675 20.4715L50.684 20.4504L50.696 20.4353L50.702 20.4112L50.7111 20.3901L50.7261 20.3509L50.7381 20.3056L50.7501 20.2634L50.7561 20.2151L50.7621 20.1699V20.1246L50.7651 20.1216V20.0764V19.9859L50.7591 19.8954L50.7441 19.8049V19.7959V19.7989V19.7778L50.7501 19.7536V19.7325L50.7411 19.7144L50.7291 19.6933L50.7171 19.6752L50.675 19.5546L50.684 19.5606L50.7051 19.5877V19.5515L50.702 19.5546V19.5606H50.687L50.675 19.5455L50.651 19.4973V19.4761L50.657 19.455L50.651 19.446H50.645L50.6269 19.4399L50.5789 19.3555L50.5218 19.2741L50.4587 19.1956L50.3956 19.1202L50.3896 19.1142V19.1051L50.3836 19.0931V19.078L50.3776 19.0026L50.4046 19.0267L50.3926 19.0478V19.072L50.4137 19.078H50.4257V19.1021L50.4317 19.1202L50.4557 19.1534L50.4828 19.1775L50.5188 19.2017L50.5278 19.1655L50.5068 19.1534H50.4978L50.4918 19.1624V19.1836L50.4828 19.1353L50.4677 19.0931L50.4377 19.0569L50.4076 19.0327V19.0267L50.5488 19.1051L50.684 19.1926L50.7231 19.2167L50.7381 19.2439L50.7501 19.2741L50.7771 19.3736V19.3857L50.7982 19.4007L50.8402 19.4279L50.8643 19.4369L50.8883 19.452L50.9304 19.4942V19.5003L50.9153 19.5154L50.9033 19.5274L50.9093 19.5395L50.9634 19.6028L50.9874 19.633L51.0085 19.6692V19.6843L51.0025 19.7144L50.9934 19.7265V19.7386L50.9874 19.7476L50.9934 19.7597L51.0175 19.7868L51.0475 19.823L51.0595 19.8381L51.0655 19.8441H51.0685L51.0745 19.8532L51.1016 19.8743H51.1106H51.1166V19.8502L51.1016 19.8019L51.0896 19.7597L51.0565 19.6843L51.0205 19.6119L50.9844 19.5395L51.0295 19.6058L51.0715 19.6812L51.1046 19.7627L51.1316 19.8592V19.8894L51.1376 19.9256V20.1608L51.1496 20.2121L51.1617 20.2724L51.1677 20.3358L51.1737 20.4052V20.4715L51.1617 20.5439L51.1376 20.6163L51.1106 20.6917L51.0806 20.737L51.0535 20.7852L51.0205 20.8274L50.9904 20.8727L50.9694 20.8878L50.9544 20.9059L50.9183 20.9451L50.8763 20.9783L50.8372 21.0144L50.7471 21.0687L50.657 21.117L50.6299 21.123H50.6179L50.6089 21.1321L50.5639 21.1532L50.5368 21.1592H50.5248L50.5158 21.1683L50.4707 21.1834L50.3686 21.1984L50.2785 21.2075H50.1914L50.1133 21.2015L49.954 21.1743L49.8068 21.1411L49.7317 21.117L49.6596 21.0868L49.5876 21.0506L49.5185 21.0144L49.4464 20.9662L49.3743 20.9119L49.3022 20.8455L49.2361 20.7762L49.161 20.6917L49.1279 20.6465L49.1009 20.6042L49.0709 20.556L49.0498 20.5107L49.0228 20.4202L48.9928 20.2905L48.9807 20.1669V20.0432L48.9867 19.9226L49.0018 19.8019L49.0318 19.6903L49.0468 19.633L49.0709 19.5847L49.0949 19.5365L49.1249 19.4942L49.152 19.449L49.185 19.4128L49.2181 19.3766L49.2571 19.3464L49.3382 19.2982L49.4343 19.268L49.4944 19.2469L49.5545 19.2228L49.6086 19.1956L49.6687 19.1655L49.7137 19.1293L49.7528 19.0991L49.7828 19.072L49.8068 19.0478V19.0358L49.8099 19.0267L49.8038 19.0177H49.7768L49.7558 19.0147L49.7347 19.0207L49.8099 18.9996L49.8789 18.9875L49.942 18.9664L50.0021 18.9543L49.9901 18.9513ZM50.7892 20.0492L50.7982 20.0221L50.8222 19.998V20.0191L50.8252 20.0462L50.8162 20.0734L50.8012 20.1035L50.7892 20.0734V20.0492Z" fill="#F6BD49"/>
</svg>
