<?xml version="1.0" encoding="utf-8"?>
<!-- Generator: Adobe Illustrator 27.5.0, SVG Export Plug-In . SVG Version: 6.00 Build 0)  -->
<svg version="1.1" id="Camada_1" xmlns="http://www.w3.org/2000/svg" xmlns:xlink="http://www.w3.org/1999/xlink" x="0px" y="0px"
	 viewBox="0 0 841.89 595.28" style="enable-background:new 0 0 841.89 595.28;" xml:space="preserve">
<style type="text/css">
	.st0{fill:#161616;}
	.st1{fill:#0058c7;}
</style>
<g>
	<path class="st0" d="M62.17,450.23V176.54h36.9v67.65c3.59-4.87,7.62-8.84,12.11-11.92c4.48-3.07,9.54-4.61,15.18-4.61
		c7.94,0,14.48,2.11,19.6,6.34c5.12,4.23,7.69,10.7,7.69,19.41v173.75c0,8.71-2.56,15.18-7.69,19.41
		c-5.13,4.23-11.66,6.34-19.6,6.34c-5.38,0-10.25-1.41-14.61-4.23c-4.36-2.82-8.33-6.66-11.92-11.53l-0.77,13.07H62.17z
		 M116.76,407.95V272.64c0-5.38-0.77-8.97-2.31-10.76c-1.54-1.79-3.72-2.69-6.53-2.69c-2.82,0-5,0.9-6.53,2.69
		c-1.54,1.8-2.31,5.38-2.31,10.76v135.31c0,5.38,0.77,8.97,2.31,10.76c1.54,1.8,3.71,2.69,6.53,2.69c2.82,0,5-0.9,6.53-2.69
		C115.99,416.92,116.76,413.33,116.76,407.95z"/>
	<path class="st0" d="M208.24,450.62h-36.9V176.54h36.9V450.62z"/>
	<path class="st0" d="M317.41,230.36v219.87h-36.9v-12.68c-6.15,10.25-14.87,15.38-26.14,15.38c-12.82,0-21.14-4.1-24.99-12.3
		c-2.31-5.12-3.46-14.99-3.46-29.6V230.36h36.9v177.59c0,3.33,0.25,6.41,0.77,9.23c0.51,2.82,2.94,4.23,7.3,4.23
		c3.33,0,5.77-0.9,7.3-2.69c1.54-1.79,2.31-5.38,2.31-10.76V230.36H317.41z"/>
	<path class="st0" d="M387.37,363.74h36.9v52.28c0,11.28-4.1,20.25-12.3,26.91c-8.2,6.67-19.35,9.99-33.44,9.99
		c-14.1,0-25.24-3.33-33.44-9.99c-8.2-6.66-12.3-15.63-12.3-26.91V264.57c0-11.27,4.1-20.24,12.3-26.91
		c8.2-6.66,19.35-9.99,33.44-9.99c14.09,0,25.24,3.33,33.44,9.99c8.2,6.67,12.3,15.63,12.3,26.91v80.72h-54.58v69.96
		c0,4.61,0.64,7.56,1.92,8.84c1.28,1.29,3.59,1.92,6.92,1.92c3.33,0,5.63-0.64,6.92-1.92c1.28-1.28,1.92-4.23,1.92-8.84V363.74z
		 M387.37,319.54v-54.2c0-4.61-0.64-7.56-1.92-8.84c-1.29-1.28-3.59-1.92-6.92-1.92c-3.33,0-5.64,0.64-6.92,1.92
		c-1.29,1.29-1.92,4.23-1.92,8.84v54.2H387.37z"/>
	<path class="st1" d="M439.64,364.51h36.9v48.05c0,5.38,0.77,8.97,2.31,10.76c1.54,1.8,3.71,2.69,6.54,2.69c2.82,0,5-0.89,6.54-2.69
		c1.54-1.79,2.31-5.38,2.31-10.76v-22.68c0-11.78-9.1-27.8-27.29-48.05c-18.2-20.24-27.29-36.13-27.29-47.66v-29.6
		c0-11.27,4.1-20.24,12.3-26.91c8.2-6.66,19.35-9.99,33.44-9.99c14.09,0,25.24,3.33,33.44,9.99c8.2,6.67,12.3,15.63,12.3,26.91
		v45.36h-36.9v-41.9c0-5.38-0.77-8.97-2.31-10.76c-1.54-1.79-3.72-2.69-6.54-2.69c-2.82,0-5,0.9-6.54,2.69
		c-1.54,1.8-2.31,5.38-2.31,10.76v18.07c0,6.67,9.09,19.6,27.29,38.82c18.19,19.22,27.29,34.73,27.29,46.51v44.59
		c0,11.28-4.1,20.25-12.3,26.91c-8.2,6.67-19.35,9.99-33.44,9.99c-14.1,0-25.24-3.33-33.44-9.99c-8.2-6.66-12.3-15.63-12.3-26.91
		V364.51z"/>
	<path class="st1" d="M637.99,264.57v151.45c0,11.28-4.1,20.25-12.3,26.91c-8.2,6.67-19.35,9.99-33.44,9.99
		c-14.1,0-25.24-3.33-33.44-9.99c-8.2-6.66-12.3-15.63-12.3-26.91V264.57c0-11.27,4.1-20.24,12.3-26.91
		c8.2-6.66,19.35-9.99,33.44-9.99c14.09,0,25.24,3.33,33.44,9.99C633.89,244.33,637.99,253.3,637.99,264.57z M601.09,415.25V265.34
		c0-4.61-0.64-7.56-1.92-8.84c-1.29-1.28-3.59-1.92-6.92-1.92c-3.33,0-5.64,0.64-6.92,1.92c-1.29,1.29-1.92,4.23-1.92,8.84v149.91
		c0,4.61,0.64,7.56,1.92,8.84c1.28,1.29,3.59,1.92,6.92,1.92c3.33,0,5.63-0.64,6.92-1.92C600.45,422.81,601.09,419.86,601.09,415.25
		z"/>
	<path class="st1" d="M659.13,450.62V259.57H647.6v-29.21h11.53v-27.68c0-8.46,1.66-14.61,5-18.45c4.35-5.12,11.92-7.69,22.68-7.69
		h20.76v29.21h-5c-2.57,0-4.29,1.03-5.19,3.08c-0.9,2.05-1.35,4.74-1.35,8.07v13.45h11.53v29.21h-11.53v191.04H659.13z"/>
	<path class="st1" d="M759.84,190.77v39.59h11.92v29.21h-11.92v144.1c0,7.71,0.7,12.59,2.11,14.64c1.41,2.05,3.39,3.08,5.96,3.08
		h3.84v29.21h-21.14c-7.44,0-13.59-2.31-18.45-6.93c-6.15-5.9-9.23-13.35-9.23-22.34V259.57h-10.76v-29.21h10.76v-39.59H759.84z"/>
</g>
</svg>
