<svg width="95" height="38" viewBox="0 0 95 38" fill="none" xmlns="http://www.w3.org/2000/svg">
<path d="M0 36.6416V0H4.94018V9.05699C5.42081 8.40499 5.96034 7.87349 6.56147 7.46114C7.16125 7.05013 7.83868 6.84395 8.59377 6.84395C9.65677 6.84395 10.5324 7.12644 11.2178 7.69275C11.9033 8.25906 12.2474 9.12527 12.2474 10.2914V33.553C12.2474 34.7191 11.9046 35.5853 11.2178 36.1516C10.531 36.718 9.65677 37.0004 8.59377 37.0004C7.87349 37.0004 7.22149 36.8117 6.63778 36.4341C6.05406 36.0566 5.52256 35.5425 5.04193 34.8905L4.93884 36.6403H0V36.6416ZM7.30852 30.9812V12.8659C7.30852 12.1456 7.20543 11.665 6.99925 11.4253C6.79308 11.1857 6.50122 11.0652 6.12502 11.0652C5.74747 11.0652 5.45562 11.1857 5.25078 11.4253C5.0446 11.6663 4.94152 12.1456 4.94152 12.8659V30.9812C4.94152 31.7015 5.0446 32.1821 5.25078 32.4217C5.45695 32.6627 5.74747 32.7819 6.12502 32.7819C6.50256 32.7819 6.79442 32.6614 6.99925 32.4217C7.20543 32.1821 7.30852 31.7015 7.30852 30.9812Z" fill="#161616"/>
<path d="M19.5559 36.6939H14.6157V0H19.5559V36.6939Z" fill="#161616"/>
<path d="M34.1716 7.20543V36.6417H29.2314V34.9441C28.408 36.3163 27.2406 37.0031 25.7318 37.0031C24.0154 37.0031 22.9015 36.4542 22.3861 35.3564C22.0768 34.6709 21.9229 33.3495 21.9229 31.3936V7.20543H26.863V30.9812C26.863 31.427 26.8965 31.8394 26.9661 32.2169C27.0344 32.5945 27.3597 32.7832 27.9435 32.7832C28.3893 32.7832 28.7159 32.6627 28.9208 32.4231C29.127 32.1834 29.23 31.7028 29.23 30.9825V7.20543H34.1716Z" fill="#161616"/>
<path d="M43.5378 25.0624H48.478V32.0616C48.478 33.5718 47.9291 34.7727 46.8313 35.6643C45.7334 36.5573 44.2407 37.0018 42.3543 37.0018C40.4666 37.0018 38.9752 36.556 37.8774 35.6643C36.7795 34.7727 36.2306 33.5718 36.2306 32.0616V11.7855C36.2306 10.2766 36.7795 9.07573 37.8774 8.18275C38.9752 7.29111 40.4679 6.84529 42.3543 6.84529C44.2407 6.84529 45.7334 7.29111 46.8313 8.18275C47.9291 9.07573 48.478 10.2753 48.478 11.7855V22.5923H41.1708V31.9585C41.1708 32.5757 41.2565 32.9707 41.4279 33.142C41.5992 33.3147 41.9085 33.3991 42.3543 33.3991C42.8001 33.3991 43.1081 33.3134 43.2808 33.142C43.4521 32.9707 43.5378 32.5757 43.5378 31.9585V25.0624ZM43.5378 19.1449V11.8886C43.5378 11.2714 43.4521 10.8764 43.2808 10.7051C43.1081 10.5337 42.8001 10.448 42.3543 10.448C41.9085 10.448 41.5992 10.5337 41.4279 10.7051C41.2552 10.8778 41.1708 11.2714 41.1708 11.8886V19.1449H43.5378Z" fill="#161616"/>
<path d="M50.5357 25.1654H55.4759V31.5984C55.4759 32.3187 55.579 32.7993 55.7852 33.0389C55.9913 33.2799 56.2819 33.3991 56.6608 33.3991C57.0383 33.3991 57.3301 33.2799 57.5363 33.0389C57.7425 32.7993 57.8456 32.3187 57.8456 31.5984V28.562C57.8456 26.9849 56.6273 24.8401 54.192 22.129C51.7554 19.4193 50.5384 17.292 50.5384 15.7483V11.7855C50.5384 10.2766 51.0873 9.07573 52.1851 8.18275C53.283 7.29111 54.7757 6.84529 56.6621 6.84529C58.5485 6.84529 60.0412 7.29111 61.139 8.18275C62.2369 9.07573 62.7858 10.2753 62.7858 11.7855V17.8583H57.8456V12.2487C57.8456 11.5284 57.7425 11.0478 57.5363 10.8081C57.3301 10.5685 57.0383 10.448 56.6608 10.448C56.2832 10.448 55.9913 10.5685 55.7852 10.8081C55.579 11.0491 55.4759 11.5284 55.4759 12.2487V14.6679C55.4759 15.5609 56.6929 17.292 59.1295 19.8651C61.5648 22.4383 62.7831 24.5148 62.7831 26.0919V32.0616C62.7831 33.5718 62.2342 34.7727 61.1364 35.6643C60.0385 36.5573 58.5458 37.0018 56.6594 37.0018C54.7717 37.0018 53.2803 36.556 52.1825 35.6643C51.0846 34.7727 50.5357 33.5718 50.5357 32.0616V25.1654Z" fill="#0058C7"/>
<path d="M77.0909 11.7855V32.0616C77.0909 33.5718 76.542 34.7727 75.4441 35.6643C74.3463 36.5573 72.8536 37.0018 70.9672 37.0018C69.0795 37.0018 67.588 36.556 66.4902 35.6643C65.3924 34.7727 64.8435 33.5718 64.8435 32.0616V11.7855C64.8435 10.2766 65.3924 9.07573 66.4902 8.18275C67.588 7.29111 69.0808 6.84529 70.9672 6.84529C72.8536 6.84529 74.3463 7.29111 75.4441 8.18275C76.542 9.07573 77.0909 10.2766 77.0909 11.7855ZM72.1507 31.9585V11.8886C72.1507 11.2714 72.065 10.8764 71.8936 10.7051C71.7209 10.5337 71.413 10.448 70.9672 10.448C70.5214 10.448 70.2121 10.5337 70.0407 10.7051C69.868 10.8778 69.7837 11.2714 69.7837 11.8886V31.9585C69.7837 32.5757 69.8694 32.9707 70.0407 33.142C70.2121 33.3147 70.5214 33.3991 70.9672 33.3991C71.413 33.3991 71.7209 33.3134 71.8936 33.142C72.065 32.9707 72.1507 32.5757 72.1507 31.9585Z" fill="#0058C7"/>
<path d="M79.9211 36.6939V11.1161H78.3774V7.20543H79.9211V3.49963C79.9211 2.367 80.1433 1.54364 80.5905 1.02954C81.1729 0.344072 82.1863 0 83.6269 0H86.4062V3.91064H85.7368C85.3928 3.91064 85.1625 4.04854 85.042 4.32299C84.9215 4.59744 84.8613 4.95758 84.8613 5.4034V7.20409H86.4049V11.1147H84.8613V36.6912H79.9211V36.6939Z" fill="#0058C7"/>
<path d="M93.4042 1.90511V7.20542H95V11.1161H93.4042V30.4082C93.4042 31.4404 93.4979 32.0937 93.6867 32.3682C93.8754 32.6426 94.1405 32.7805 94.4846 32.7805H94.9987V36.6912H92.1684C91.1724 36.6912 90.349 36.3819 89.6984 35.7634C88.875 34.9735 88.4626 33.9761 88.4626 32.7725V11.1161H87.0221V7.20542H88.4626V1.90511H93.4042Z" fill="#0058C7"/>
</svg>
